<svg width="320" height="320" viewBox="0 0 320 320" xmlns="http://www.w3.org/2000/svg" shape-rendering="crispEdges"><rect width="60" height="10" x="150" y="40" fill="#181b1d" /><rect width="20" height="10" x="140" y="50" fill="#181b1d" /><rect width="50" height="10" x="160" y="50" fill="#522a07" /><rect width="10" height="10" x="210" y="50" fill="#181b1d" /><rect width="10" height="10" x="220" y="50" fill="#1a1b1c" /><rect width="20" height="10" x="130" y="60" fill="#181b1d" /><rect width="80" height="10" x="150" y="60" fill="#522a07" /><rect width="10" height="10" x="230" y="60" fill="#1a1b1c" /><rect width="20" height="10" x="120" y="70" fill="#181b1d" /><rect width="100" height="10" x="140" y="70" fill="#522a07" /><rect width="10" height="10" x="240" y="70" fill="#1a1b1c" /><rect width="10" height="10" x="120" y="80" fill="#181b1d" /><rect width="20" height="10" x="130" y="80" fill="#522a07" /><rect width="20" height="10" x="150" y="80" fill="#181b1d" /><rect width="70" height="10" x="170" y="80" fill="#522a07" /><rect width="10" height="10" x="240" y="80" fill="#1a1a1c" /><rect width="10" height="10" x="120" y="90" fill="#181b1d" /><rect width="10" height="10" x="130" y="90" fill="#522a07" /><rect width="10" height="10" x="140" y="90" fill="#181b1d" /><rect width="20" height="10" x="150" y="90" fill="#f9cfa8" /><rect width="10" height="10" x="170" y="90" fill="#181b1d" /><rect width="60" height="10" x="180" y="90" fill="#522a07" /><rect width="10" height="10" x="240" y="90" fill="#1a1a1c" /><rect width="10" height="10" x="120" y="100" fill="#181b1d" /><rect width="10" height="10" x="130" y="100" fill="#522a07" /><rect width="10" height="10" x="140" y="100" fill="#181b1d" /><rect width="30" height="10" x="150" y="100" fill="#f9cfa8" /><rect width="10" height="10" x="180" y="100" fill="#181b1d" /><rect width="50" height="10" x="190" y="100" fill="#522a07" /><rect width="10" height="10" x="240" y="100" fill="#1a1a1c" /><rect width="20" height="10" x="130" y="110" fill="#181b1d" /><rect width="10" height="10" x="150" y="110" fill="#f9cfa8" /><rect width="20" height="10" x="160" y="110" fill="#181b1d" /><rect width="10" height="10" x="180" y="110" fill="#f9cfa8" /><rect width="10" height="10" x="190" y="110" fill="#181b1d" /><rect width="10" height="10" x="200" y="110" fill="#522a07" /><rect width="10" height="10" x="210" y="110" fill="#181b1d" /><rect width="20" height="10" x="220" y="110" fill="#522a07" /><rect width="10" height="10" x="240" y="110" fill="#1a1a1c" /><rect width="10" height="10" x="140" y="120" fill="#181b1d" /><rect width="10" height="10" x="150" y="120" fill="#f9cfa8" /><rect width="10" height="10" x="160" y="120" fill="#0aa400" /><rect width="10" height="10" x="170" y="120" fill="#ffffff" /><rect width="20" height="10" x="180" y="120" fill="#f9cfa8" /><rect width="10" height="10" x="200" y="120" fill="#181b1d" /><rect width="10" height="10" x="210" y="120" fill="#f9cfa8" /><rect width="10" height="10" x="220" y="120" fill="#181b1d" /><rect width="10" height="10" x="230" y="120" fill="#522a07" /><rect width="10" height="10" x="240" y="120" fill="#181b1d" /><rect width="10" height="10" x="140" y="130" fill="#181b1d" /><rect width="10" height="10" x="150" y="130" fill="#f9cfa8" /><rect width="10" height="10" x="160" y="130" fill="#0aa400" /><rect width="10" height="10" x="170" y="130" fill="#ffffff" /><rect width="40" height="10" x="180" y="130" fill="#f9cfa8" /><rect width="10" height="10" x="220" y="130" fill="#1a1a1c" /><rect width="10" height="10" x="230" y="130" fill="#181b1d" /><rect width="10" height="10" x="140" y="140" fill="#181b1d" /><rect width="60" height="10" x="150" y="140" fill="#f9cfa8" /><rect width="20" height="10" x="210" y="140" fill="#181b1d" /><rect width="10" height="10" x="150" y="150" fill="#181b1d" /><rect width="20" height="10" x="160" y="150" fill="#f9cfa8" /><rect width="30" height="10" x="180" y="150" fill="#181b1d" /><rect width="20" height="10" x="210" y="150" fill="#2568dd" /><rect width="10" height="10" x="230" y="150" fill="#181b1d" /><rect width="20" height="10" x="160" y="160" fill="#181b1d" /><rect width="60" height="10" x="180" y="160" fill="#2568dd" /><rect width="10" height="10" x="240" y="160" fill="#181b1d" /><rect width="20" height="10" x="120" y="170" fill="#181b1d" /><rect width="10" height="10" x="150" y="170" fill="#181b1d" /><rect width="90" height="10" x="160" y="170" fill="#2568dd" /><rect width="10" height="10" x="250" y="170" fill="#181b1d" /><rect width="10" height="10" x="110" y="180" fill="#181b1d" /><rect width="20" height="10" x="120" y="180" fill="#f9cfa8" /><rect width="10" height="10" x="140" y="180" fill="#181b1d" /><rect width="60" height="10" x="150" y="180" fill="#2568dd" /><rect width="20" height="10" x="210" y="180" fill="#181b1d" /><rect width="30" height="10" x="230" y="180" fill="#2568dd" /><rect width="10" height="10" x="260" y="180" fill="#181b1d" /><rect width="10" height="10" x="110" y="190" fill="#181b1d" /><rect width="20" height="10" x="120" y="190" fill="#f9cfa8" /><rect width="60" height="10" x="140" y="190" fill="#2568dd" /><rect width="10" height="10" x="200" y="190" fill="#1a1a1c" /><rect width="20" height="10" x="210" y="190" fill="#f9cfa8" /><rect width="10" height="10" x="230" y="190" fill="#181b1d" /><rect width="20" height="10" x="240" y="190" fill="#2568dd" /><rect width="10" height="10" x="260" y="190" fill="#181b1d" /><rect width="10" height="10" x="110" y="200" fill="#181b1d" /><rect width="20" height="10" x="120" y="200" fill="#f9cfa8" /><rect width="60" height="10" x="140" y="200" fill="#2568dd" /><rect width="10" height="10" x="200" y="200" fill="#1a1a1c" /><rect width="20" height="10" x="210" y="200" fill="#f9cfa8" /><rect width="20" height="10" x="230" y="200" fill="#2568dd" /><rect width="20" height="10" x="250" y="200" fill="#181b1d" /><rect width="40" height="10" x="120" y="210" fill="#181b1d" /><rect width="40" height="10" x="160" y="210" fill="#2568dd" /><rect width="10" height="10" x="200" y="210" fill="#181b1d" /><rect width="20" height="10" x="210" y="210" fill="#f9cfa8" /><rect width="10" height="10" x="230" y="210" fill="#2568dd" /><rect width="20" height="10" x="240" y="210" fill="#181b1d" /><rect width="10" height="10" x="160" y="220" fill="#181b1d" /><rect width="40" height="10" x="170" y="220" fill="#2568dd" /><rect width="40" height="10" x="210" y="220" fill="#181b1d" /><rect width="10" height="10" x="170" y="230" fill="#181b1d" /><rect width="50" height="10" x="180" y="230" fill="#2568dd" /><rect width="10" height="10" x="230" y="230" fill="#181b1d" /><rect width="10" height="10" x="170" y="240" fill="#181b1d" /><rect width="50" height="10" x="180" y="240" fill="#2568dd" /><rect width="10" height="10" x="230" y="240" fill="#181b1d" /><rect width="10" height="10" x="160" y="250" fill="#181b1d" /><rect width="20" height="10" x="170" y="250" fill="#2568dd" /><rect width="10" height="10" x="190" y="250" fill="#181b1d" /><rect width="30" height="10" x="200" y="250" fill="#2568dd" /><rect width="10" height="10" x="230" y="250" fill="#181b1d" /><rect width="10" height="10" x="160" y="260" fill="#181b1d" /><rect width="20" height="10" x="170" y="260" fill="#2568dd" /><rect width="10" height="10" x="190" y="260" fill="#181b1d" /><rect width="30" height="10" x="200" y="260" fill="#2568dd" /><rect width="10" height="10" x="230" y="260" fill="#181b1d" /><rect width="20" height="10" x="150" y="270" fill="#181b1d" /><rect width="20" height="10" x="170" y="270" fill="#f9cfa8" /><rect width="10" height="10" x="190" y="270" fill="#181b1d" /><rect width="30" height="10" x="200" y="270" fill="#f9cfa8" /><rect width="10" height="10" x="230" y="270" fill="#181b1d" /><rect width="10" height="10" x="140" y="280" fill="#181b1d" /><rect width="40" height="10" x="150" y="280" fill="#f9cfa8" /><rect width="20" height="10" x="190" y="280" fill="#181b1d" /><rect width="30" height="10" x="210" y="280" fill="#f9cfa8" /><rect width="10" height="10" x="240" y="280" fill="#181b1d" /><rect width="50" height="10" x="140" y="290" fill="#181b1d" /><rect width="30" height="10" x="190" y="290" fill="#f9cfa8" /><rect width="10" height="10" x="220" y="290" fill="#181b1d" /><rect width="10" height="10" x="230" y="290" fill="#f9cfa8" /><rect width="10" height="10" x="240" y="290" fill="#181b1d" /><rect width="60" height="10" x="190" y="300" fill="#181b1d" /><rect x="150" y="30" width="10" height="10" fill="#f00"/><rect x="160" y="30" width="10" height="10" fill="#0f0"/><rect x="150" y="30" width="10" height="10" fill="#f00"/><rect x="160" y="30" width="10" height="10" fill="#00f"/></svg>